<?xml version="1.0" encoding="UTF-8"?>
<!-- Generator: Adobe Illustrator 23.0.3, SVG Export Plug-In . SVG Version: 6.00 Build 0)  -->
<svg version="1.1" id="Capa_1" xmlns="http://www.w3.org/2000/svg" xmlns:xlink="http://www.w3.org/1999/xlink" x="0px" y="0px" viewBox="0 0 612 612" style="enable-background:new 0 0 612 612;" xml:space="preserve">
<style type="text/css">
	.st0{fill:#EDEDED;}
</style>
<g>
	<g id="Info">
		<g>
			<path class="st0" d="M306,153c-21.1,0-38.2,17.1-38.2,38.2s17.1,38.2,38.2,38.2s38.2-17.1,38.2-38.2S327.1,153,306,153z      M306,267.8c-21.1,0-38.2,17.1-38.2,38.2v114.8c0,21.1,17.1,38.2,38.2,38.2s38.2-17.1,38.2-38.2V306     C344.2,284.9,327.1,267.8,306,267.8z M306,0C137.3,0,0,137.3,0,306s137.3,306,306,306s306-137.3,306-306S474.7,0,306,0z      M306,554.6C168.9,554.6,57.4,443.1,57.4,306S168.9,57.4,306,57.4c137.1,0,248.6,111.5,248.6,248.6S443.1,554.6,306,554.6z"/>
		</g>
	</g>
</g>
</svg>